<svg xmlns="http://www.w3.org/2000/svg" viewBox="0 0 64 64" role="img" aria-label="Common Crawler">
  <circle cx="32" cy="32" r="30" fill="#ffffff"/>
  <circle cx="32" cy="32" r="29" fill="none" stroke="#54b03a" stroke-width="6"/>
  <g stroke="#16243a" stroke-width="3.2" stroke-linecap="round" fill="none">
    <path d="M28 30 C18 24 14 22 9 16"/>
    <path d="M27 34 C16 32 12 32 6 30"/>
    <path d="M27 38 C16 40 12 42 7 46"/>
    <path d="M28 42 C20 48 17 51 13 56"/>
    <path d="M36 30 C46 24 50 22 55 16"/>
    <path d="M37 34 C48 32 52 32 58 30"/>
    <path d="M37 38 C48 40 52 42 57 46"/>
    <path d="M36 42 C44 48 47 51 51 56"/>
  </g>
  <g fill="#16243a">
    <ellipse cx="32" cy="39" rx="9" ry="12"/>
    <circle cx="32" cy="26" r="6.5"/>
  </g>
  <g stroke="#16243a" stroke-width="2" stroke-linecap="round">
    <path d="M29.5 21 L26.5 15.5"/>
    <path d="M34.5 21 L37.5 15.5"/>
  </g>
  <g fill="#7CFC00">
    <circle cx="29.7" cy="25" r="1.2"/>
    <circle cx="34.3" cy="25" r="1.2"/>
  </g>
</svg>
